<?xml version="1.0" encoding="UTF-8"?>
<svg width="28px" height="28px" viewBox="0 0 28 28" version="1.1" xmlns="http://www.w3.org/2000/svg" xmlns:xlink="http://www.w3.org/1999/xlink">
    <!-- Generator: Sketch 49.3 (51167) - http://www.bohemiancoding.com/sketch -->
    <title>jiahao </title>
    <desc>Created with Sketch.</desc>
    <defs></defs>
    <g id="jiahao-" stroke="none" stroke-width="1" fill="none" fill-rule="evenodd">
        <g id="添加" transform="translate(6.000000, 6.000000)" fill="#999999" fill-rule="nonzero">
            <path d="M8.48533933,0 C3.78576677,0 0,3.78576677 0,8.48533935 C0,13.1849119 3.82928134,16.9706787 8.48533933,16.9706787 C13.1849119,16.9706787 16.9706787,13.1849119 16.9706787,8.48533935 C16.9706787,3.82928136 13.1849119,1.91226104e-08 8.48533933,0 Z M13.2284264,9.13805775 L9.13805773,9.13805775 L9.13805773,13.2284264 C9.13805773,13.5765429 8.8334558,13.8811449 8.48533933,13.8811449 C8.13722285,13.8811449 7.83262092,13.5765429 7.83262092,13.2284264 L7.83262092,9.13805775 L3.7422522,9.13805775 C3.39413573,9.13805775 3.0895338,8.83345582 3.0895338,8.48533935 C3.0895338,8.13722287 3.39413573,7.83262094 3.7422522,7.83262092 L7.83262092,7.83262092 L7.83262092,3.74225222 C7.83262092,3.39413575 8.13722285,3.08953382 8.48533933,3.08953382 C8.8334558,3.08953382 9.13805773,3.39413575 9.13805773,3.74225222 L9.13805773,7.83262092 L13.2284264,7.83262092 C13.5765429,7.83262092 13.8811448,8.13722285 13.8811449,8.48533935 C13.8811449,8.83345584 13.6200575,9.13805775 13.2284264,9.13805775 Z" id="Shape"></path>
        </g>
    </g>
</svg>