<svg xmlns="http://www.w3.org/2000/svg" width="96" height="96" viewBox="0 0 96 96">
    <g fill="none" fill-rule="nonzero">
        <path fill="#FFD764" d="M48 96C21.49 96 0 74.51 0 48S21.49 0 48 0s48 21.49 48 48c-.03 26.497-21.503 47.97-48 48z"/>
        <path fill="#FFF" d="M73.133 66c.564-2.203.855-4.47.867-6.75 0-1.243-.97-2.25-2.167-2.25H24.167C22.97 57 22 58.007 22 59.25a27.82 27.82 0 0 0 .856 6.75h50.277z"/>
        <path fill="#AE453E" d="M23 66c2.948 11.775 13.23 20 25 20s22.052-8.225 25-20H23z"/>
        <path fill="#E86C60" d="M35 82.447a25.559 25.559 0 0 0 26 0C58.257 77.827 53.323 75 48 75s-10.257 2.826-13 7.447z"/>
        <path fill="#E2AC4B" d="M41.751 26.755L31.713 27l-5.891-8.095a2.2 2.2 0 0 0-3.883.656l-2.868 9.587-9.552 3.08a2.184 2.184 0 1 0-.571 3.881l8.263 5.689V51.8a2.187 2.187 0 0 0 1.218 1.97c.75.371 1.646.286 2.311-.22l7.978-6.076 9.544 3.1a2.202 2.202 0 0 0 2.252-.55c.584-.595.779-1.469.502-2.254l-3.347-9.456 5.91-8.084a2.181 2.181 0 0 0 .17-2.304 2.063 2.063 0 0 0-1.998-1.172zM87.978 33.995a2.191 2.191 0 0 0-1.496-1.765l-9.552-3.083-2.868-9.585a2.199 2.199 0 0 0-3.883-.657l-5.892 8.102-10.038-.245a2.043 2.043 0 0 0-1.999 1.174 2.184 2.184 0 0 0 .172 2.306l5.91 8.09-3.337 9.445a2.185 2.185 0 0 0 .503 2.257 2.2 2.2 0 0 0 2.251.55l9.544-3.103 7.979 6.081a2.2 2.2 0 0 0 1.333.438c1.212 0 2.196-.98 2.196-2.19L78.79 41.8l8.263-5.693a2.187 2.187 0 0 0 .925-2.111z"/>
    </g>
</svg>
