<?xml version="1.0" encoding="UTF-8"?>
<svg width="51px" height="54px" viewBox="0 0 51 54" version="1.1" xmlns="http://www.w3.org/2000/svg" xmlns:xlink="http://www.w3.org/1999/xlink">
    <!-- Generator: Sketch 49.3 (51167) - http://www.bohemiancoding.com/sketch -->
    <title>dk</title>
    <desc>Created with Sketch.</desc>
    <defs></defs>
    <g id="Page-1" stroke="none" stroke-width="1" fill="none" fill-rule="evenodd" opacity="0.763756793">
        <g id="上期结果-未抽中" transform="translate(-165.000000, -219.000000)" fill="#888888" fill-rule="nonzero">
            <g id="Group-2">
                <g id="Group-4" transform="translate(98.000000, 219.000000)">
                    <g id="Group-3" transform="translate(67.000000, 0.000000)">
                        <g id="dk">
                            <path d="M25.5,0 C11.475,0 0,11.1054852 0,24.7493671 C0,30.7780591 1.23125,36.4894515 5.05625,40.9316456 L12.06875,15.5476793 L12.70625,13.0092827 C13.025,13.9611814 13.6625,15.2303797 14.3,16.1822785 C16.85,19.9898734 20.99375,23.1628692 25.775,24.4320675 C30.875,25.7012658 35.65625,25.0666667 40.11875,22.8455696 C41.075,22.2109705 42.35,21.5763713 43.30625,20.9417722 L42.66875,23.4801688 L36.29375,46.9603376 C44.58125,42.835443 51,34.585654 51,24.7493671 C51,11.1054852 39.525,0 25.5,0 Z M22.7262606,48.6622467 C22.9459906,48.3752319 23.132631,48.0356633 23.212694,47.7564504 L28.5689689,29.0769 C28.5982739,28.9747014 28.6451407,28.8827587 28.7056096,28.8036323 L28.0847859,28.6256139 C27.7162558,28.5199396 27.4706517,28.1995547 27.5451594,27.9397156 C27.6196671,27.6798764 27.9977293,27.5383249 28.3662594,27.6439992 L35.1698918,29.5949094 C35.5384219,29.7005837 35.7923046,29.9920976 35.7095183,30.2808078 C35.626732,30.569518 35.2569484,30.6821984 34.8884183,30.5765241 L34.2356275,30.3893394 C34.2470172,30.489071 34.2396191,30.5923311 34.2103141,30.6945297 L28.8623179,49.3452091 C28.7381384,49.7782744 28.7461691,50.4992094 28.9019618,50.9188208 L29.4082258,52.4700093 C29.5557398,52.9184917 29.3312112,53.1665579 28.8776357,53.0364972 L28.869357,53.0653683 L21.2436191,50.8787231 C20.8183921,50.7567912 20.7393662,50.3904372 21.093846,50.1171441 L21.6788549,49.6275707 C21.6646321,49.6242756 21.6504192,49.6205964 21.6362274,49.616527 C21.182191,49.4863341 20.9216094,49.0059381 21.0542021,48.5435324 C21.1867948,48.0811267 21.6623516,47.8118149 22.116388,47.9420077 C22.4541004,48.0388452 22.684786,48.3294286 22.7262606,48.6622467 Z M14.5880724,24.7554936 L13.9389002,24.5693465 C13.5703701,24.4636722 13.324766,24.1432873 13.3992737,23.8834481 C13.4737814,23.623609 13.8518436,23.4820575 14.2203737,23.5877318 L21.0240061,25.538642 C21.4208846,25.6524451 21.6747674,25.9439589 21.5919811,26.2326691 C21.5091947,26.5213793 21.1394111,26.6340598 20.7708811,26.5283855 L20.1464388,26.3493295 C20.1578285,26.4490611 20.1504304,26.5523212 20.1211254,26.6545198 L20.0927769,26.646391 L14.736502,45.3259414 C14.6123226,45.7590067 14.6203533,46.4799418 14.7761459,46.8995531 L15.28241,48.4507416 C15.429924,48.8992241 15.2053953,49.1472903 14.7518198,49.0172296 L7.12608188,46.8305844 C6.70085486,46.7086526 6.621829,46.3422986 6.9763088,46.0690055 L8.22764975,45.0218021 C8.59040818,44.7196379 8.97097735,44.141377 9.09515683,43.7083117 L14.4514317,25.0287613 C14.4807367,24.9265627 14.5276035,24.8346201 14.5880724,24.7554936 Z M43.94375,17.7206751 C42.9875,18.3552743 42.03125,18.9898734 40.75625,19.6244726 C36.6125,21.8455696 31.5125,22.4801688 26.4125,21.2109705 C21.63125,19.9417722 17.4875,17.0860759 14.9375,12.9611814 C14.3,12.0092827 13.6625,11.057384 13.34375,9.78818565 L13.6625,8.20168776 C14.3,6.2978903 16.2125,5.34599156 18.125,5.66329114 L41.7125,11.6919831 C43.625,12.3265823 44.9,14.2303797 44.2625,15.8168776 L43.94375,17.7206751 Z M19.9635694,24.4221998 C19.935221,24.414071 19.878524,24.3978134 19.8584542,24.3608136 L16.0271407,21.8874274 C15.8169102,21.764655 15.7697454,21.5011717 15.8926714,21.2864611 C16.0155974,21.0717505 16.2754996,21.0212967 16.4857301,21.1440691 L20.3170437,23.6174554 C20.5272741,23.7402278 20.574439,24.0037111 20.4515129,24.2184216 C20.3368656,24.4042612 20.1336602,24.4709725 19.9635694,24.4221998 Z M29.8571849,27.2591483 C29.6870941,27.2103756 29.5501178,27.0461188 29.5513713,26.827764 C29.5609034,26.5805383 29.7405263,26.3820853 29.9838713,26.3893736 L34.5437045,26.32211 C34.7870495,26.3293982 34.9807227,26.5099127 34.9711906,26.7571384 C34.9616585,27.0043642 34.7820355,27.2028171 34.5386905,27.1955289 L29.9788574,27.2627925 C29.9422303,27.2835347 29.8855334,27.2672771 29.8571849,27.2591483 Z M18.6425571,43.2590069 C18.1606331,43.1208174 17.765008,42.7886596 17.5525185,42.3527906 C17.3400289,41.9169217 17.3106748,41.3773416 17.5163871,40.8739208 L20.8504308,32.4564783 C21.2252283,31.470379 22.3275539,30.942854 23.3197503,31.2273618 L23.5748865,31.3005209 C24.5588043,31.6138996 25.1975264,32.7031518 25.0010984,33.7091529 L23.3892862,42.432968 C23.3052464,42.9400329 22.9944188,43.3820675 22.5749634,43.6679741 C22.155508,43.9538806 21.6439821,44.0259171 21.1337097,43.8795988 L18.6224872,43.2220071 C18.6709055,43.2671357 18.642557,43.2590069 18.6425571,43.2590069 Z M29.7388613,49.2841051 C29.8897427,48.7579193 30.4308935,48.4514611 30.9475556,48.5996115 C31.4642177,48.747762 31.7607416,49.2944196 31.6098602,49.8206054 C31.4589789,50.3467912 30.917828,50.6532494 30.4011659,50.5050989 C29.8845038,50.3569484 29.5879799,49.8102909 29.7388613,49.2841051 Z M6.4080719,42.5941089 C6.53152028,42.1635932 6.97428009,41.9128547 7.39700361,42.0340687 C7.81972713,42.1552827 8.06233757,42.602548 7.93888919,43.0330636 C7.81544081,43.4635793 7.37268101,43.7143178 6.94995748,43.5931038 C6.52723396,43.4718898 6.28462352,43.0246245 6.4080719,42.5941089 Z" id="Combined-Shape"></path>
                        </g>
                    </g>
                </g>
            </g>
        </g>
    </g>
</svg>