<svg xmlns="http://www.w3.org/2000/svg" width="48" height="48" viewBox="0 0 48 48"><g class="nc-icon-wrapper"><path d="M16,44V26H14.6A3.607,3.607,0,0,1,11,22.4V19.5a7,7,0,0,1,2.024-4.941l4.2-5.191A11.072,11.072,0,0,1,20,6.925V2a1,1,0,0,1,1-1H35a1,1,0,0,1,1,1V8.506a7.6,7.6,0,0,1,2,5.137V27a2.989,2.989,0,0,1-5.021,2.2A2.993,2.993,0,0,1,27,29a2.987,2.987,0,0,1-5,2.22V44a3,3,0,0,1-6,0Z" fill="#ffd764"></path> <path d="M14,25.939V19a1,1,0,0,1,2,0v7H14.6A3.521,3.521,0,0,1,14,25.939Z" fill="#e2ac4b"></path></g></svg>