<svg xmlns="http://www.w3.org/2000/svg" width="64" height="64" viewBox="0 0 64 64">
    <g fill="none" fill-rule="nonzero">
        <path fill="#FFD764" d="M32 64C14.327 64 0 49.673 0 32 0 14.327 14.327 0 32 0c17.673 0 32 14.327 32 32-.02 17.665-14.335 31.98-32 32z"/>
        <path fill="#FFF" d="M48.873 43.636c.378-1.424.574-2.89.582-4.363 0-.804-.652-1.455-1.455-1.455H16c-.803 0-1.455.651-1.455 1.455.006 1.473.2 2.94.575 4.363h33.753z"/>
        <path fill="#AE453E" d="M15.127 43.636a17.428 17.428 0 0 0 33.746 0H15.127z"/>
        <path fill="#E86C60" d="M23.293 54.378a17.31 17.31 0 0 0 17.414 0 10.16 10.16 0 0 0-17.414 0z"/>
        <path fill="#FA645A" d="M20.743 14.71a5.146 5.146 0 0 0-3.527 3.287 5.09 5.09 0 0 0-8.324 5.066c1.29 4.925 12.244 9.955 12.244 9.955s7.103-9.745 5.818-14.672a5.107 5.107 0 0 0-6.21-3.636zM37.046 18.35c-1.285 4.927 5.818 14.673 5.818 14.673s10.954-5.035 12.244-9.96a5.09 5.09 0 0 0-8.324-5.066 5.09 5.09 0 0 0-9.738.354z"/>
    </g>
</svg>
