<svg xmlns="http://www.w3.org/2000/svg" width="96" height="96" viewBox="0 0 96 96">
    <g fill="none" fill-rule="nonzero">
        <path fill="#FFD764" d="M48 96C21.49 96 0 74.51 0 48S21.49 0 48 0s48 21.49 48 48c-.03 26.497-21.503 47.97-48 48z"/>
        <path fill="#444" d="M32.727 45.818a2.182 2.182 0 0 1-2.182-2.182 4.364 4.364 0 1 0-8.727 0 2.182 2.182 0 0 1-4.363 0 8.727 8.727 0 1 1 17.454 0 2.182 2.182 0 0 1-2.182 2.182zM76.364 45.818a2.182 2.182 0 0 1-2.182-2.182 4.364 4.364 0 0 0-8.727 0 2.182 2.182 0 0 1-4.364 0 8.727 8.727 0 0 1 17.454 0 2.182 2.182 0 0 1-2.181 2.182z"/>
        <path fill="#E86C60" d="M82.787 76.204L75.24 66.52A34.193 34.193 0 0 1 63.135 76a33.41 33.41 0 0 1-5.814 2.066l8.256 11.549a10.91 10.91 0 1 0 17.21-13.41z"/>
        <path fill="#444" d="M48.037 80.727a36.305 36.305 0 0 1-29.173-14.513 2.182 2.182 0 1 1 3.48-2.634 32.21 32.21 0 0 0 50.98.524 2.182 2.182 0 1 1 3.426 2.703 36.384 36.384 0 0 1-28.713 13.92z"/>
    </g>
</svg>
