<?xml version="1.0" encoding="UTF-8"?>
<svg width="21px" height="24px" viewBox="0 0 21 24" version="1.1" xmlns="http://www.w3.org/2000/svg" xmlns:xlink="http://www.w3.org/1999/xlink">
    <!-- Generator: Sketch 49.3 (51167) - http://www.bohemiancoding.com/sketch -->
    <title>定位</title>
    <desc>Created with Sketch.</desc>
    <defs></defs>
    <g id="Page-1" stroke="none" stroke-width="1" fill="none" fill-rule="evenodd">
        <g id="新增地址" transform="translate(-336.000000, -201.000000)" fill="#333333" fill-rule="nonzero">
            <g id="Group-Copy" transform="translate(4.000000, 137.000000)">
                <g id="定位" transform="translate(332.000000, 64.000000)">
                    <path d="M10.5,14.5098214 C7.91409574,14.5098214 5.80851064,12.4901786 5.80851064,10.0098214 C5.80851064,7.52946429 7.91409574,5.50982143 10.5,5.50982143 C13.0859043,5.50982143 15.1914894,7.52946429 15.1914894,10.0098214 C15.1914894,12.4901786 13.0859043,14.5098214 10.5,14.5098214 Z M10.5,7.00982143 C8.77699468,7.00982143 7.37234043,8.35714286 7.37234043,10.0098214 C7.37234043,11.6625 8.77699468,13.0098214 10.5,13.0098214 C12.2230053,13.0098214 13.6276596,11.6625 13.6276596,10.0098214 C13.6276596,8.35714286 12.2230053,7.00982143 10.5,7.00982143 Z" id="Shape"></path>
                    <path d="M10.5,1.5 C12.8150266,1.5 15.0183511,2.33571429 16.7022606,3.84910714 C18.4224734,5.39464286 19.3886968,7.5375 19.4277926,9.88660714 C19.4696809,12.4285714 18.4168883,14.9223214 16.5347074,16.725 L15.8142287,17.4160714 L10.4692819,22.4892857 L6.78869681,18.95625 L4.4625,16.725 C2.5831117,14.9223214 1.5275266,12.4285714 1.56941489,9.88660714 C1.60851064,7.54017857 2.5775266,5.39732143 4.29494681,3.84910714 C5.98164894,2.33571429 8.1849734,1.5 10.5,1.5 Z M10.5,0 C7.88617021,0 5.26954787,0.91875 3.22819149,2.75625 C-1.2231383,6.75803571 -0.955053191,13.65 3.35664894,17.7857143 L5.68284574,20.0169643 L9.36343085,23.5473214 C9.67619681,23.8473214 10.0867021,23.9973214 10.4972074,23.9973214 C10.9077128,23.9973214 11.3182181,23.8473214 11.630984,23.5473214 L16.9228723,18.4794643 L17.6433511,17.7883929 C21.9550532,13.6526786 22.2231383,6.75803571 17.7746011,2.75625 C15.7304521,0.91875 13.1138298,0 10.5,0 Z" id="Shape"></path>
                </g>
            </g>
        </g>
    </g>
</svg>