<?xml version="1.0" encoding="UTF-8"?>
<svg width="20px" height="20px" viewBox="0 0 20 20" version="1.1" xmlns="http://www.w3.org/2000/svg" xmlns:xlink="http://www.w3.org/1999/xlink">
    <!-- Generator: Sketch 49.3 (51167) - http://www.bohemiancoding.com/sketch -->
    <title>二维码</title>
    <desc>Created with Sketch.</desc>
    <defs></defs>
    <g id="Page-1" stroke="none" stroke-width="1" fill="none" fill-rule="evenodd">
        <g id="上期结果-未抽中" transform="translate(-270.000000, -744.000000)" fill="#8E6630" fill-rule="nonzero">
            <g id="Group-2">
                <g id="pic" transform="translate(25.000000, 182.000000)">
                    <g id="Group-6" transform="translate(0.000000, 254.000000)">
                        <g id="Group-5" transform="translate(56.000000, 0.000000)">
                            <g id="二维码" transform="translate(0.000000, 308.000000)">
                                <g transform="translate(189.000000, 0.000000)" id="Shape">
                                    <path d="M0.630498474,0.00484231943 L8.63123093,0.00484231943 C9.44472024,0.0842522889 9.24860631,1.49861648 9.24860631,2.41739573 L9.24860631,6.79196338 C9.24860631,7.74282808 9.42994914,8.90819939 8.79226857,9.17822991 C8.37690743,9.35403866 7.26227874,9.23121058 6.7249237,9.23121058 L2.48313327,9.23121058 C1.50246185,9.23121058 0.163580875,9.4622177 0.0130620549,8.62136317 L0.0130620549,0.614587996 C0.122726348,0.316358087 0.31560529,0.100284842 0.630498474,0.00484231943 M1.73139369,1.80769074 L1.73139369,7.50787386 L7.50356053,7.50787386 L7.50356053,1.72817904 L1.75829095,1.72817904 C1.72683622,1.73247202 1.72899288,1.77005086 1.73139369,1.80773143 M11.3695829,0.00488301119 L19.3703154,0.00488301119 C19.6966633,0.124435402 19.9208342,0.344923703 19.9877314,0.72069176 L19.9877314,8.51534079 C19.9144863,8.83934893 19.743235,9.11582909 19.4239471,9.20463886 C18.9021363,9.34970498 18.0348525,9.23123093 17.4103357,9.23123093 L13.3026857,9.23123093 C12.6832146,9.23123093 11.7651475,9.36002035 11.2622584,9.20463886 C10.5522889,8.98531027 10.7522075,7.61684639 10.7522075,6.65947101 L10.7522075,2.57645982 C10.7522075,1.47129196 10.50647,0.15930824 11.3695829,0.00486266531 M12.4703764,1.80771109 L12.4703764,7.5078942 L18.242767,7.5078942 L18.242767,1.72817904 L12.4972126,1.72817904 C12.4659817,1.73247202 12.4680773,1.77005086 12.4703764,1.80773143 M4.36240081,3.47802645 C5.16626653,3.32817904 5.79845371,3.86455748 5.81218718,4.59147508 C5.83017294,5.55029502 4.83867752,6.07688708 4.06712106,5.67855544 C3.18425229,5.22288911 3.24231943,3.6866531 4.36240081,3.47802645 M15.1014649,3.47802645 C16.995117,3.128647 16.9587996,6.09003052 15.1014649,5.78453713 C13.9195727,5.59023398 13.8813835,3.70299084 15.1014649,3.47802645 M8.57755849,19.9954832 L0.657416073,19.9954832 C0.328565615,19.8957884 0.106490336,19.6909257 0.0130824008,19.3591251 L0.0130824008,11.3787589 C0.0912512716,11.1451475 0.271780264,10.8727976 0.549969481,10.7954425 C1.0755646,10.6494405 1.93399797,10.7689318 2.5636826,10.7689318 L6.67121058,10.7689318 C7.27829095,10.7689318 8.16185148,10.6351577 8.71163784,10.7954629 C9.45558494,11.0122686 9.24860631,12.3585961 9.24860631,13.3141811 L9.24860631,17.5296439 C9.24860631,18.5609766 9.47353001,19.9033367 8.57755849,19.9954629 M1.73137335,12.5717396 L1.73137335,18.2720651 L7.50356053,18.2720651 L7.50356053,12.4921872 L1.75829095,12.4921872 C1.72683622,12.4967854 1.72899288,12.5342014 1.73139369,12.5717396 M19.9877111,11.4848627 L19.9877111,13.7118616 C19.9251475,14.4630722 19.9787589,15.3290946 19.9609766,16.1245168 L14.2423194,16.1245168 L14.2423194,14.8254934 C13.7052899,14.7634385 13.0520855,14.8165005 12.4704781,14.7987589 C12.4077721,16.4780061 12.4615259,18.2719634 12.4435402,19.9953408 L11.3964191,19.9953408 C10.4961953,19.8170498 10.7521058,18.4830926 10.7521058,17.4235809 L10.7521058,13.3141811 C10.7521058,12.6962767 10.6254323,11.769766 10.7789624,11.2726144 C10.962177,10.6793693 11.756297,10.7688505 12.5509664,10.7688505 L16.4438454,10.7688505 L16.4438454,14.2950356 L18.2427263,14.2950356 C18.2605086,13.1284435 18.2069583,11.8912309 18.2694201,10.7688708 C19.135117,10.7182909 19.9368871,10.7307833 19.9877111,11.4848423 M4.49666328,14.2155036 C5.35509664,14.1217091 6.06457782,14.9364598 5.73173957,15.83294 C5.27009156,17.0753815 3.06325534,16.6083215 3.47648016,15.0374975 C3.59062055,14.6032553 3.92073245,14.2785758 4.49666328,14.2155036 M16.1754018,19.9954629 L14.2423194,19.9954629 C14.2602035,19.3147711 14.2065514,18.5635809 14.2692574,17.9273042 L16.1754222,17.9273042 L16.1754222,19.9954629 L16.1754018,19.9954629 M19.9877111,17.9273245 L19.9877111,19.2795727 C19.9130417,19.6565005 19.6899491,19.8866938 19.3433978,19.9953815 L17.9742218,19.9953815 C17.9920651,19.3148118 17.9384537,18.5636826 18.0010987,17.9273652 L19.9877111,17.9273652 L19.9877111,17.9273245"></path>
                                </g>
                            </g>
                        </g>
                    </g>
                </g>
            </g>
        </g>
    </g>
</svg>