<svg xmlns="http://www.w3.org/2000/svg" width="97" height="96" viewBox="0 0 97 96">
    <g fill="none" fill-rule="nonzero">
        <path fill="#FFD764" d="M48.364 96c-26.51 0-48-21.49-48-48s21.49-48 48-48 48 21.49 48 48c-.03 26.497-21.503 47.97-48 48z"/>
        <path fill="#444" d="M61.455 45.818a2.182 2.182 0 0 0 2.181-2.182 4.364 4.364 0 0 1 8.728 0 2.182 2.182 0 1 0 4.363 0 8.727 8.727 0 0 0-17.454 0c0 1.205.977 2.182 2.182 2.182zM35.273 45.818a2.182 2.182 0 0 1-2.182-2.182 4.364 4.364 0 0 0-8.727 0 2.182 2.182 0 0 1-4.364 0 8.727 8.727 0 0 1 17.455 0 2.182 2.182 0 0 1-2.182 2.182z"/>
        <path fill="#FFF" d="M73.673 65.455c.567-2.136.86-4.336.872-6.546a2.182 2.182 0 0 0-2.181-2.182h-48a2.182 2.182 0 0 0-2.182 2.182c.008 2.21.298 4.41.862 6.546h50.629z"/>
        <path fill="#AE453E" d="M23.055 65.455a26.143 26.143 0 0 0 50.618 0H23.055z"/>
        <path fill="#FA645A" d="M35.303 81.567a25.964 25.964 0 0 0 26.121 0 15.24 15.24 0 0 0-26.12 0z"/>
        <path fill="#43A6DD" d="M96.937 64.342a8.184 8.184 0 0 1-11.432 1.686c-3.098-2.301-7.571-12.654-8.437-14.694a1.7 1.7 0 0 1 1.68-2.26c2.212.235 13.405 1.527 16.503 3.837a8.182 8.182 0 0 1 1.686 11.43zM1.476 52.911c3.099-2.293 14.291-3.602 16.504-3.838a1.7 1.7 0 0 1 1.68 2.26c-.873 2.05-5.34 12.394-8.437 14.695a8.17 8.17 0 1 1-9.747-13.117z"/>
    </g>
</svg>
