<svg xmlns="http://www.w3.org/2000/svg" xmlns:xlink="http://www.w3.org/1999/xlink" width="18" height="18" viewBox="0 0 18 18">
    <defs>
        <rect id="b" width="300" height="128" rx="19"/>
        <filter id="a" width="112.7%" height="129.7%" x="-6.3%" y="-13.3%" filterUnits="objectBoundingBox">
            <feOffset dy="2" in="SourceAlpha" result="shadowOffsetOuter1"/>
            <feGaussianBlur in="shadowOffsetOuter1" result="shadowBlurOuter1" stdDeviation="6"/>
            <feColorMatrix in="shadowBlurOuter1" values="0 0 0 0 0 0 0 0 0 0 0 0 0 0 0 0 0 0 0.15 0"/>
        </filter>
        <rect id="d" width="42" height="42" rx="21"/>
        <filter id="c" width="157.1%" height="157.1%" x="-28.6%" y="-28.6%" filterUnits="objectBoundingBox">
            <feOffset in="SourceAlpha" result="shadowOffsetOuter1"/>
            <feGaussianBlur in="shadowOffsetOuter1" result="shadowBlurOuter1" stdDeviation="4"/>
            <feColorMatrix in="shadowBlurOuter1" values="0 0 0 0 0 0 0 0 0 0 0 0 0 0 0 0 0 0 0.08 0"/>
        </filter>
    </defs>
    <g fill="none" fill-rule="evenodd">
        <g transform="translate(-240 -75)">
            <use fill="#000" filter="url(#a)" xlink:href="#b"/>
            <use fill="#FFF" xlink:href="#b"/>
        </g>
        <g transform="translate(-12 -12)">
            <use fill="#000" filter="url(#c)" xlink:href="#d"/>
            <use fill="#4660FF" xlink:href="#d"/>
        </g>
        <g stroke="#FFF" stroke-linecap="square">
            <path d="M8 8H1V1h7zM17 8h-7V1h7zM8 17H1v-7h7zM17 14v-4h-3v2.4h-3V10M17 17h-6v-1"/>
            <path d="M5 5H4V4h1zM14 5h-1V4h1zM5 14H4v-1h1z"/>
        </g>
    </g>
</svg>
