<?xml version="1.0" encoding="UTF-8"?>
<svg width="28px" height="28px" viewBox="0 0 28 28" version="1.1" xmlns="http://www.w3.org/2000/svg" xmlns:xlink="http://www.w3.org/1999/xlink">
    <!-- Generator: Sketch 49.3 (51167) - http://www.bohemiancoding.com/sketch -->
    <title>weixin</title>
    <desc>Created with Sketch.</desc>
    <defs></defs>
    <g id="weixin" stroke="none" stroke-width="1" fill="none" fill-rule="evenodd">
        <g id="微信" transform="translate(3.000000, 5.000000)" fill="#999999" fill-rule="nonzero">
            <path d="M15.3359441,5.44650363 C15.4440642,5.44650363 15.5515214,5.44888819 15.658463,5.45285435 C14.9774098,2.36205057 11.7630968,0.0216776592 7.90006339,0.0216776592 C3.54145523,0.0216776592 0.00813405016,3.00086941 0.00813405016,6.67584178 C0.00813405016,8.822968 1.21456631,10.7321978 3.08668323,11.9489075 L2.29819735,14.2539987 L4.90913465,12.8349907 C5.83161672,13.1537918 6.84135101,13.3300059 7.90003883,13.3300059 C8.10412647,13.3300059 8.3063974,13.3234849 8.50655699,13.3106374 C8.28570139,12.7309216 8.16604265,12.1131502 8.16604265,11.4718495 C8.16609176,8.14417129 11.376133,5.44650363 15.3359441,5.44650363 Z M10.6235889,3.31110556 C11.2672273,3.31110556 11.789022,3.82823883 11.789022,4.46618171 C11.789022,5.10410026 11.2672519,5.62125785 10.6235889,5.62125785 C9.97992598,5.62125785 9.45815586,5.10412458 9.45815586,4.46618171 C9.45818043,3.82823883 9.97995054,3.31110556 10.6235889,3.31110556 Z M5.20184933,5.62123351 C4.55821092,5.62123351 4.03641627,5.10410024 4.03641627,4.46615736 C4.03641627,3.82823881 4.55818638,3.31108122 5.20184933,3.31108122 C5.84551228,3.31108122 6.36728239,3.82821449 6.36728239,4.46615736 C6.36728239,5.10407591 5.84551228,5.62123351 5.20184933,5.62123351 Z" id="Shape"></path>
            <path d="M21.9991249,11.4718738 C21.9991249,8.37931813 19.0159295,5.87231798 15.3359441,5.87231798 C11.6559587,5.87231798 8.67278791,8.37931813 8.67278791,11.4718738 C8.67278791,14.5644295 11.6559833,17.0714297 15.3359687,17.0714297 C16.1086441,17.0714297 16.850386,16.9605233 17.5404738,16.757276 L19.8186792,17.9954225 L19.1565543,16.0597192 C20.8752557,15.047011 21.9991249,13.3698378 21.9991249,11.4718738 Z M13.2541666,10.66835 C12.7388287,10.66835 12.3210787,10.2543125 12.3210787,9.74355425 C12.3210787,9.23279604 12.7388287,8.8187585 13.2541666,8.8187585 C13.7695045,8.8187585 14.1872545,9.23279602 14.1872545,9.74355425 C14.1872544,10.2543125 13.7695045,10.66835 13.2541666,10.66835 Z M17.5950984,10.66835 C17.0797606,10.66835 16.6620106,10.2543125 16.6620106,9.74355425 C16.6620106,9.23279604 17.0797605,8.8187585 17.5950984,8.8187585 C18.1104363,8.8187585 18.5281863,9.23279602 18.5281863,9.74355425 C18.5281863,10.2543125 18.1104118,10.66835 17.5950984,10.66835 Z" id="Shape"></path>
        </g>
    </g>
</svg>